<?xml version="1.0" encoding="utf-8"?>
<!-- Generator: Adobe Illustrator 23.0.6, SVG Export Plug-In . SVG Version: 6.00 Build 0)  -->
<svg version="1.1" id="Layer_1" xmlns:svg="http://www.w3.org/2000/svg"
	 xmlns="http://www.w3.org/2000/svg" xmlns:xlink="http://www.w3.org/1999/xlink" x="0px" y="0px" viewBox="0 0 360 185"
	 style="enable-background:new 0 0 360 185;" xml:space="preserve">
<style type="text/css">
	.st0{fill:#05668D;}
	.st1{fill:#F05D5E;}
	.st2{fill:#679436;}
	.st3{fill:#A5BE00;}
</style>
<g>
	<g id="DemocraticParty">
		<circle class="st0" cx="10.1" cy="176" r="4"/>
		<circle class="st0" cx="20" cy="176" r="4"/>
		<circle class="st0" cx="30" cy="176" r="4"/>
		<circle class="st0" cx="40.1" cy="176" r="4"/>
		<circle class="st0" cx="50.1" cy="176" r="4"/>
		<circle class="st0" cx="60.1" cy="176" r="4"/>
		<circle class="st0" cx="70.1" cy="176" r="4"/>
		<circle class="st0" cx="80.1" cy="176" r="4"/>
		<circle class="st0" cx="90.1" cy="176" r="4"/>
		<circle class="st0" cx="100.1" cy="176" r="4"/>
		<circle class="st0" cx="10.7" cy="164.3" r="4"/>
		<circle class="st0" cx="20.8" cy="164.5" r="4"/>
		<circle class="st0" cx="30.8" cy="164.4" r="4"/>
		<circle class="st0" cx="40.9" cy="164.4" r="4"/>
		<circle class="st0" cx="51" cy="164.3" r="4"/>
		<circle class="st0" cx="61" cy="164.5" r="4"/>
		<circle class="st0" cx="71.1" cy="164.4" r="4"/>
		<circle class="st0" cx="81.2" cy="164.3" r="4"/>
		<circle class="st0" cx="12.2" cy="152.7" r="4"/>
		<circle class="st0" cx="22.3" cy="153.1" r="4"/>
		<circle class="st0" cx="91.4" cy="164.1" r="4"/>
		<circle class="st0" cx="32.5" cy="153" r="4"/>
		<circle class="st0" cx="101.5" cy="164.5" r="4"/>
		<circle class="st0" cx="42.7" cy="152.8" r="4"/>
		<circle class="st0" cx="52.9" cy="152.6" r="4"/>
		<circle class="st0" cx="63" cy="153.2" r="4"/>
		<circle class="st0" cx="14.5" cy="141.3" r="4"/>
		<circle class="st0" cx="24.6" cy="141.9" r="4"/>
		<circle class="st0" cx="73.4" cy="153" r="4"/>
		<circle class="st0" cx="35" cy="141.7" r="4"/>
		<circle class="st0" cx="83.8" cy="152.8" r="4"/>
		<circle class="st0" cx="45.4" cy="141.5" r="4"/>
		<circle class="st0" cx="17.5" cy="130" r="4"/>
		<circle class="st0" cx="55.9" cy="141.3" r="4"/>
		<circle class="st0" cx="94.3" cy="152.6" r="4"/>
		<circle class="st0" cx="27.8" cy="130.8" r="4"/>
		<circle class="st0" cx="66.2" cy="142.1" r="4"/>
		<circle class="st0" cx="38.4" cy="130.6" r="4"/>
		<circle class="st0" cx="104.6" cy="153.4" r="4"/>
		<circle class="st0" cx="76.8" cy="141.9" r="4"/>
		<circle class="st0" cx="49.1" cy="130.4" r="4"/>
		<circle class="st0" cx="21.3" cy="118.9" r="4"/>
		<circle class="st0" cx="31.7" cy="120" r="4"/>
		<circle class="st0" cx="59.9" cy="130.2" r="4"/>
		<circle class="st0" cx="87.6" cy="141.7" r="4"/>
		<circle class="st0" cx="42.6" cy="119.8" r="4"/>
		<circle class="st0" cx="70.3" cy="131.3" r="4"/>
		<circle class="st0" cx="25.9" cy="108.2" r="4"/>
		<circle class="st0" cx="98.7" cy="141.4" r="4"/>
		<circle class="st0" cx="53.7" cy="119.7" r="4"/>
		<circle class="st0" cx="36.4" cy="109.5" r="4"/>
		<circle class="st0" cx="81.4" cy="131.2" r="4"/>
		<circle class="st0" cx="64.9" cy="119.5" r="4"/>
		<circle class="st0" cx="109.2" cy="142.7" r="4"/>
		<circle class="st0" cx="47.6" cy="109.4" r="4"/>
		<circle class="st0" cx="31.2" cy="97.8" r="4"/>
		<circle class="st0" cx="92.8" cy="131.1" r="4"/>
		<circle class="st0" cx="75.5" cy="121" r="4"/>
		<circle class="st0" cx="41.8" cy="99.3" r="4"/>
		<circle class="st0" cx="59.1" cy="109.4" r="4"/>
		<circle class="st0" cx="87.1" cy="121.1" r="4"/>
		<circle class="st0" cx="53.5" cy="99.4" r="4"/>
		<circle class="st0" cx="37.2" cy="87.7" r="4"/>
		<circle class="st0" cx="70.9" cy="109.4" r="4"/>
		<circle class="st0" cx="104.5" cy="131" r="4"/>
		<circle class="st0" cx="48" cy="89.6" r="4"/>
		<circle class="st0" cx="81.6" cy="111.3" r="4"/>
		<circle class="st0" cx="65.4" cy="99.6" r="4"/>
		<circle class="st0" cx="99.1" cy="121.2" r="4"/>
		<circle class="st0" cx="115.3" cy="132.9" r="4"/>
		<circle class="st0" cx="43.9" cy="78.2" r="4"/>
		<circle class="st0" cx="60.1" cy="89.9" r="4"/>
		<circle class="st0" cx="77.7" cy="99.8" r="4"/>
		<circle class="st0" cx="93.9" cy="111.6" r="4"/>
		<circle class="st0" cx="54.8" cy="80.4" r="4"/>
		<circle class="st0" cx="72.5" cy="90.3" r="4"/>
		<circle class="st0" cx="88.7" cy="102.2" r="4"/>
		<circle class="st0" cx="111.6" cy="121.5" r="4"/>
		<circle class="st0" cx="51.2" cy="69" r="4"/>
		<circle class="st0" cx="67.4" cy="80.9" r="4"/>
		<circle class="st0" cx="62.3" cy="71.7" r="4"/>
		<circle class="st0" cx="106.6" cy="112.1" r="4"/>
		<circle class="st0" cx="85.4" cy="90.9" r="4"/>
		<circle class="st0" cx="122.8" cy="124.1" r="4"/>
		<circle class="st0" cx="101.6" cy="102.9" r="4"/>
		<circle class="st0" cx="80.4" cy="81.7" r="4"/>
		<circle class="st0" cx="59.1" cy="60.5" r="4"/>
		<circle class="st0" cx="75.4" cy="72.5" r="4"/>
		<circle class="st0" cx="96.6" cy="93.8" r="4"/>
		<circle class="st0" cx="70.4" cy="63.5" r="4"/>
		<circle class="st0" cx="120" cy="112.9" r="4"/>
		<circle class="st0" cx="93.8" cy="82.7" r="4"/>
		<circle class="st0" cx="67.6" cy="52.4" r="4"/>
		<circle class="st0" cx="88.9" cy="73.7" r="4"/>
		<circle class="st0" cx="115.1" cy="103.9" r="4"/>
		<circle class="st0" cx="84" cy="64.8" r="4"/>
		<circle class="st0" cx="110.2" cy="95" r="4"/>
		<circle class="st0" cx="79" cy="55.9" r="4"/>
		<circle class="st0" cx="105.2" cy="86.1" r="4"/>
		<circle class="st0" cx="76.7" cy="45" r="4"/>
		<circle class="st0" cx="131.5" cy="116.4" r="4"/>
		<circle class="st0" cx="103" cy="75.3" r="4"/>
		<circle class="st0" cx="98.1" cy="66.5" r="4"/>
		<circle class="st0" cx="93.1" cy="57.7" r="4"/>
		<circle class="st0" cx="88.2" cy="49" r="4"/>
		<circle class="st0" cx="129.4" cy="105.6" r="4"/>
		<circle class="st0" cx="124.5" cy="96.8" r="4"/>
		<circle class="st0" cx="86.2" cy="38.2" r="4"/>
		<circle class="st0" cx="119.5" cy="88.1" r="4"/>
		<circle class="st0" cx="114.6" cy="79.4" r="4"/>
		<circle class="st0" cx="112.8" cy="68.7" r="4"/>
		<circle class="st0" cx="107.8" cy="60.1" r="4"/>
		<circle class="st0" cx="102.8" cy="51.4" r="4"/>
		<circle class="st0" cx="97.8" cy="42.7" r="4"/>
		<circle class="st0" cx="96.2" cy="32.1" r="4"/>
		<circle class="st0" cx="141.2" cy="110.1" r="4"/>
		<circle class="st0" cx="124.5" cy="73.6" r="4"/>
		<circle class="st0" cx="129.6" cy="82.2" r="4"/>
		<circle class="st0" cx="134.6" cy="90.9" r="4"/>
		<circle class="st0" cx="107.9" cy="37.2" r="4"/>
		<circle class="st0" cx="139.7" cy="99.5" r="4"/>
		<circle class="st0" cx="113" cy="45.8" r="4"/>
		<circle class="st0" cx="118" cy="54.5" r="4"/>
		<circle class="st0" cx="123.1" cy="63.1" r="4"/>
		<circle class="st0" cx="106.5" cy="26.7" r="4"/>
		<circle class="st0" cx="118.4" cy="32.3" r="4"/>
		<circle class="st0" cx="123.5" cy="41" r="4"/>
		<circle class="st0" cx="135" cy="68.8" r="4"/>
		<circle class="st0" cx="117.2" cy="22" r="4"/>
		<circle class="st0" cx="128.7" cy="49.7" r="4"/>
		<circle class="st0" cx="140.2" cy="77.5" r="4"/>
		<circle class="st0" cx="133.9" cy="58.4" r="4"/>
		<circle class="st0" cx="151.7" cy="105.2" r="4"/>
		<circle class="st0" cx="145.4" cy="86.2" r="4"/>
		<circle class="st0" cx="150.7" cy="94.9" r="4"/>
		<circle class="st0" cx="129.1" cy="28.3" r="4"/>
		<circle class="st0" cx="128.2" cy="18.1" r="4"/>
		<circle class="st0" cx="134.4" cy="37.1" r="4"/>
		<circle class="st0" cx="139.7" cy="45.9" r="4"/>
		<circle class="st0" cx="145.9" cy="64.9" r="4"/>
		<circle class="st0" cx="145.1" cy="54.8" r="4"/>
		<circle class="st0" cx="151.2" cy="73.8" r="4"/>
		<circle class="st0" cx="140.2" cy="25" r="4"/>
		<circle class="st0" cx="139.5" cy="14.9" r="4"/>
		<circle class="st0" cx="156.7" cy="82.8" r="4"/>
		<circle class="st0" cx="145.6" cy="34" r="4"/>
		<circle class="st0" cx="162.8" cy="101.9" r="4"/>
		<circle class="st0" cx="151" cy="43" r="4"/>
		<circle class="st0" cx="162.2" cy="91.8" r="4"/>
		<circle class="st0" cx="157.1" cy="62.2" r="4"/>
		<circle class="st0" cx="156.6" cy="52.1" r="4"/>
		<circle class="st0" cx="151.4" cy="22.6" r="4"/>
		<circle class="st0" cx="150.9" cy="12.5" r="4"/>
		<circle class="st0" cx="162.6" cy="71.4" r="4"/>
		<circle class="st0" cx="156.9" cy="31.8" r="4"/>
		<circle class="st0" cx="162.5" cy="41.1" r="4"/>
		<circle class="st0" cx="168.2" cy="80.7" r="4"/>
		<circle class="st0" cx="162.8" cy="20.9" r="4"/>
		<circle class="st0" cx="162.5" cy="10.9" r="4"/>
		<circle class="st0" cx="168.5" cy="60.5" r="4"/>
		<circle class="st0" cx="168.2" cy="50.5" r="4"/>
		<circle class="st0" cx="168.4" cy="30.5" r="4"/>
		<circle class="st0" cx="174.2" cy="100.2" r="4"/>
		<circle class="st0" cx="174" cy="90.2" r="4"/>
		<circle class="st0" cx="174.2" cy="70.2" r="4"/>
		<circle class="st0" cx="174.2" cy="40.1" r="4"/>
		<circle class="st0" cx="174.2" cy="20.1" r="4"/>
		<circle class="st0" cx="174.2" cy="10.1" r="4"/>
		<circle class="st0" cx="180" cy="30" r="4"/>
		<circle class="st0" cx="180" cy="50" r="4"/>
		<circle class="st0" cx="180" cy="60" r="4"/>
		<circle class="st0" cx="180" cy="80" r="4"/>
		<circle class="st0" cx="185.8" cy="10.1" r="4"/>
		<circle class="st0" cx="185.8" cy="20.1" r="4"/>
		<circle class="st0" cx="185.8" cy="40.1" r="4"/>
		<circle class="st0" cx="185.8" cy="70.2" r="4"/>
		<circle class="st0" cx="186" cy="90.2" r="4"/>
		<circle class="st0" cx="185.8" cy="100.2" r="4"/>
		<circle class="st0" cx="191.6" cy="30.5" r="4"/>
		<circle class="st0" cx="191.8" cy="50.5" r="4"/>
	</g>
	<g id="NewCentre-Right">
		<circle class="st1" cx="191.5" cy="60.5" r="4"/>
		<circle class="st1" cx="197.5" cy="10.9" r="4"/>
		<circle class="st1" cx="197.2" cy="20.9" r="4"/>
		<circle class="st1" cx="191.8" cy="80.7" r="4"/>
		<circle class="st1" cx="197.5" cy="41.1" r="4"/>
		<circle class="st1" cx="203.1" cy="31.8" r="4"/>
		<circle class="st1" cx="197.4" cy="71.4" r="4"/>
		<circle class="st1" cx="209.1" cy="12.5" r="4"/>
		<circle class="st1" cx="208.6" cy="22.6" r="4"/>
		<circle class="st1" cx="203.4" cy="52.1" r="4"/>
		<circle class="st1" cx="202.9" cy="62.2" r="4"/>
		<circle class="st1" cx="197.8" cy="91.8" r="4"/>
		<circle class="st1" cx="209" cy="43" r="4"/>
		<circle class="st1" cx="197.2" cy="101.9" r="4"/>
		<circle class="st1" cx="214.4" cy="34" r="4"/>
		<circle class="st1" cx="203.3" cy="82.8" r="4"/>
		<circle class="st1" cx="220.5" cy="14.9" r="4"/>
		<circle class="st1" cx="219.8" cy="25" r="4"/>
		<circle class="st1" cx="208.8" cy="73.8" r="4"/>
		<circle class="st1" cx="214.9" cy="54.8" r="4"/>
	</g>
	<g id="FiveStarMovement">
		<circle class="st2" cx="214.1" cy="64.9" r="4"/>
		<circle class="st2" cx="220.3" cy="45.9" r="4"/>
		<circle class="st2" cx="225.6" cy="37.1" r="4"/>
		<circle class="st2" cx="231.8" cy="18.1" r="4"/>
		<circle class="st2" cx="230.9" cy="28.3" r="4"/>
		<circle class="st2" cx="209.3" cy="94.9" r="4"/>
		<circle class="st2" cx="214.6" cy="86.2" r="4"/>
		<circle class="st2" cx="208.3" cy="105.2" r="4"/>
		<circle class="st2" cx="226.1" cy="58.4" r="4"/>
		<circle class="st2" cx="219.8" cy="77.5" r="4"/>
		<circle class="st2" cx="231.3" cy="49.7" r="4"/>
		<circle class="st2" cx="242.8" cy="22" r="4"/>
		<circle class="st2" cx="225" cy="68.8" r="4"/>
		<circle class="st2" cx="236.5" cy="41" r="4"/>
		<circle class="st2" cx="241.6" cy="32.3" r="4"/>
		<ellipse class="st2" cx="253.5" cy="26.7" rx="4" ry="4"/>
		<circle class="st2" cx="236.9" cy="63.1" r="4"/>
		<circle class="st2" cx="242" cy="54.5" r="4"/>
		<circle class="st2" cx="247" cy="45.8" r="4"/>
		<circle class="st2" cx="220.3" cy="99.5" r="4"/>
		<ellipse class="st2" cx="252.1" cy="37.1" rx="4" ry="4"/>
		<circle class="st2" cx="225.4" cy="90.9" r="4"/>
		<circle class="st2" cx="230.4" cy="82.2" r="4"/>
		<circle class="st2" cx="235.5" cy="73.6" r="4"/>
		<circle class="st2" cx="218.8" cy="110.1" r="4"/>
		<circle class="st2" cx="263.8" cy="32.1" r="4"/>
		<circle class="st2" cx="262.2" cy="42.7" r="4"/>
		<circle class="st2" cx="257.2" cy="51.4" r="4"/>
		<ellipse transform="matrix(0.2871 -0.9579 0.9579 0.2871 122.2862 284.4411)" class="st2" cx="252.2" cy="60.1" rx="4" ry="4"/>
		<circle class="st2" cx="247.2" cy="68.7" r="4"/>
		<circle class="st2" cx="245.4" cy="79.4" r="4"/>
		<circle class="st2" cx="240.5" cy="88.1" r="4"/>
		<circle class="st2" cx="273.8" cy="38.2" r="4"/>
		<circle class="st2" cx="235.5" cy="96.8" r="4"/>
		<circle class="st2" cx="230.6" cy="105.6" r="4"/>
		<circle class="st2" cx="271.8" cy="49" r="4"/>
		<circle class="st2" cx="266.9" cy="57.7" r="4"/>
		<circle class="st2" cx="261.9" cy="66.5" r="4"/>
		<circle class="st2" cx="257" cy="75.3" r="4"/>
		<circle class="st2" cx="228.5" cy="116.4" r="4"/>
		<circle class="st2" cx="283.3" cy="45" r="4"/>
		<ellipse transform="matrix(0.3162 -0.9487 0.9487 0.3162 92.4976 300.5403)" class="st2" cx="254.7" cy="86.1" rx="4" ry="4"/>
		<circle class="st2" cx="281" cy="55.9" r="4"/>
		<circle class="st2" cx="249.8" cy="95" r="4"/>
		<circle class="st2" cx="276" cy="64.8" r="4"/>
		<circle class="st2" cx="244.9" cy="103.9" r="4"/>
		<circle class="st2" cx="271.1" cy="73.7" r="4"/>
		<circle class="st2" cx="292.4" cy="52.4" r="4"/>
		<circle class="st2" cx="266.2" cy="82.7" r="4"/>
		<circle class="st2" cx="240" cy="112.9" r="4"/>
		<circle class="st2" cx="289.6" cy="63.5" r="4"/>
		<circle class="st2" cx="263.4" cy="93.8" r="4"/>
		<circle class="st2" cx="284.6" cy="72.5" r="4"/>
		<circle class="st2" cx="300.9" cy="60.5" r="4"/>
		<circle class="st2" cx="279.6" cy="81.7" r="4"/>
		<circle class="st2" cx="258.4" cy="102.9" r="4"/>
		<circle class="st2" cx="237.2" cy="124.1" r="4"/>
		<circle class="st2" cx="274.6" cy="90.9" r="4"/>
		<circle class="st2" cx="253.4" cy="112.1" r="4"/>
		<circle class="st2" cx="297.7" cy="71.7" r="4"/>
		<circle class="st2" cx="292.6" cy="80.9" r="4"/>
		<circle class="st2" cx="308.8" cy="69" r="4"/>
		<circle class="st2" cx="248.4" cy="121.5" r="4"/>
		<circle class="st2" cx="271.3" cy="102.2" r="4"/>
		<circle class="st2" cx="287.5" cy="90.3" r="4"/>
		<circle class="st2" cx="305.2" cy="80.4" r="4"/>
		<circle class="st2" cx="266.1" cy="111.6" r="4"/>
		<circle class="st2" cx="282.3" cy="99.8" r="4"/>
		<circle class="st2" cx="299.9" cy="89.9" r="4"/>
		<circle class="st2" cx="316.1" cy="78.2" r="4"/>
		<circle class="st2" cx="244.7" cy="132.9" r="4"/>
		<circle class="st2" cx="260.9" cy="121.2" r="4"/>
		<circle class="st2" cx="294.6" cy="99.6" r="4"/>
		<circle class="st2" cx="278.4" cy="111.3" r="4"/>
		<circle class="st2" cx="312" cy="89.6" r="4"/>
		<ellipse class="st2" cx="255.5" cy="131" rx="4" ry="4"/>
		<circle class="st2" cx="289.1" cy="109.4" r="4"/>
		<circle class="st2" cx="322.8" cy="87.7" r="4"/>
		<circle class="st2" cx="306.5" cy="99.4" r="4"/>
		<circle class="st2" cx="272.9" cy="121.1" r="4"/>
	</g>
	<g id="FederationofItalianLiberals">
		<circle class="st3" cx="300.9" cy="109.4" r="4"/>
		<circle class="st3" cx="318.2" cy="99.3" r="4"/>
		<circle class="st3" cx="284.5" cy="121" r="4"/>
		<circle class="st3" cx="267.2" cy="131.1" r="4"/>
		<circle class="st3" cx="328.8" cy="97.8" r="4"/>
		<circle class="st3" cx="312.4" cy="109.4" r="4"/>
		<circle class="st3" cx="250.8" cy="142.7" r="4"/>
		<circle class="st3" cx="295.1" cy="119.5" r="4"/>
		<circle class="st3" cx="278.6" cy="131.2" r="4"/>
		<circle class="st3" cx="323.6" cy="109.5" r="4"/>
		<circle class="st3" cx="306.3" cy="119.7" r="4"/>
		<circle class="st3" cx="261.3" cy="141.4" r="4"/>
		<circle class="st3" cx="334.1" cy="108.2" r="4"/>
		<circle class="st3" cx="289.7" cy="131.3" r="4"/>
		<circle class="st3" cx="317.4" cy="119.8" r="4"/>
		<circle class="st3" cx="272.4" cy="141.7" r="4"/>
		<circle class="st3" cx="300.1" cy="130.2" r="4"/>
		<circle class="st3" cx="328.3" cy="120" r="4"/>
		<circle class="st3" cx="338.7" cy="118.9" r="4"/>
		<circle class="st3" cx="310.9" cy="130.4" r="4"/>
		<circle class="st3" cx="283.2" cy="141.9" r="4"/>
		<circle class="st3" cx="255.4" cy="153.4" r="4"/>
		<circle class="st3" cx="321.6" cy="130.6" r="4"/>
		<circle class="st3" cx="293.9" cy="142.1" r="4"/>
		<circle class="st3" cx="332.2" cy="130.8" r="4"/>
		<circle class="st3" cx="265.7" cy="152.6" r="4"/>
		<circle class="st3" cx="304.1" cy="141.3" r="4"/>
		<circle class="st3" cx="342.5" cy="130" r="4"/>
		<circle class="st3" cx="314.6" cy="141.5" r="4"/>
		<circle class="st3" cx="276.2" cy="152.8" r="4"/>
		<circle class="st3" cx="325" cy="141.7" r="4"/>
		<circle class="st3" cx="286.6" cy="153" r="4"/>
		<circle class="st3" cx="335.4" cy="141.9" r="4"/>
		<circle class="st3" cx="345.5" cy="141.3" r="4"/>
		<circle class="st3" cx="297" cy="153.2" r="4"/>
		<circle class="st3" cx="307.1" cy="152.6" r="4"/>
		<circle class="st3" cx="317.3" cy="152.8" r="4"/>
		<circle class="st3" cx="258.5" cy="164.5" r="4"/>
		<circle class="st3" cx="327.5" cy="153" r="4"/>
		<circle class="st3" cx="268.6" cy="164.1" r="4"/>
		<circle class="st3" cx="337.7" cy="153.1" r="4"/>
		<circle class="st3" cx="347.8" cy="152.7" r="4"/>
		<circle class="st3" cx="278.8" cy="164.3" r="4"/>
		<circle class="st3" cx="288.9" cy="164.4" r="4"/>
		<circle class="st3" cx="299" cy="164.5" r="4"/>
		<circle class="st3" cx="309" cy="164.3" r="4"/>
		<circle class="st3" cx="319.1" cy="164.4" r="4"/>
		<circle class="st3" cx="329.2" cy="164.4" r="4"/>
		<circle class="st3" cx="339.2" cy="164.5" r="4"/>
		<circle class="st3" cx="349.3" cy="164.3" r="4"/>
		<circle class="st3" cx="259.9" cy="176" r="4"/>
		<circle class="st3" cx="269.9" cy="176" r="4"/>
		<circle class="st3" cx="279.9" cy="176" r="4"/>
		<circle class="st3" cx="289.9" cy="176" r="4"/>
		<circle class="st3" cx="299.9" cy="176" r="4"/>
		<circle class="st3" cx="309.9" cy="176" r="4"/>
		<circle class="st3" cx="319.9" cy="176" r="4"/>
		<circle class="st3" cx="330" cy="176" r="4"/>
		<circle class="st3" cx="340" cy="176" r="4"/>
		<circle class="st3" cx="350" cy="176" r="4"/>
	</g>
</g>
</svg>
