<?xml version="1.0" encoding="utf-8"?>
<!-- Generator: Adobe Illustrator 23.0.1, SVG Export Plug-In . SVG Version: 6.00 Build 0)  -->
<svg version="1.1" id="Layer_1" xmlns="http://www.w3.org/2000/svg" xmlns:xlink="http://www.w3.org/1999/xlink" x="0px" y="0px"
	 viewBox="0 0 480 475.1" style="enable-background:new 0 0 480 475.1;" xml:space="preserve">
<style type="text/css">
	.st0{fill-rule:evenodd;clip-rule:evenodd;fill:#CCFFCC;}
	.st1{fill-rule:evenodd;clip-rule:evenodd;fill:#3399CC;}
	.st2{fill-rule:evenodd;clip-rule:evenodd;fill:#99CCCC;}
</style>
<path class="st0" d="M242.3,0v235.3H480c0-65-28.1-123.8-70.4-165.6C367.4,27.8,308,1.5,242.3,0L242.3,0z"/>
<path class="st1" d="M478.4,263.1H234.5L67.3,402.4c20.2,21.7,45.3,38.7,73.5,51.1c29.6,13.9,64.1,21.6,100,21.6
	c64.1,0,121.9-24.7,164.1-66.5C445.6,371.5,472.1,320.4,478.4,263.1L478.4,263.1z"/>
<path class="st2" d="M214.2,243V1.5C156.3,7.7,104.7,34,67.3,74.3C25.1,116.1,0,173.3,0,236.8c0,29.4,4.7,57.3,15.7,83.6
	c7.8,21.7,18.8,41.8,32.8,60.4L214.2,243z"/>
</svg>
