<?xml version="1.0" encoding="utf-8"?>
<!-- Generator: Adobe Illustrator 23.0.1, SVG Export Plug-In . SVG Version: 6.00 Build 0)  -->
<svg version="1.1" id="Layer_1" xmlns="http://www.w3.org/2000/svg" xmlns:xlink="http://www.w3.org/1999/xlink" x="0px" y="0px"
	 viewBox="0 0 53.9 48.7" style="enable-background:new 0 0 53.9 48.7;" xml:space="preserve">
<text transform="matrix(1 0 0 1 -26.5 91)" style="display:none;enable-background:new    ; font-family:'HelveticaNeue-Bold'; font-size:5px;">Created by Severino Ribecca</text>
<text transform="matrix(1 0 0 1 -26.5 96)" style="display:none;enable-background:new    ; font-family:'HelveticaNeue-Bold'; font-size:5px;">from the Noun Project</text>
<path d="M0,48.6c1.7-0.5,3.4-0.8,4.5-1.8c4.8-5.8,7.2-15.8,9-25c0.7-3.8,1.6-7.8,2.4-12c0.6-3.1,2.3-12.4,6.5-9.8
	c1.9,1.2,2.9,4.4,3.7,7.4C27.8,13.3,29,19,30.5,25c0.6,2.5,1.6,6.2,3,8c0.4,0.5,1.3,1.3,1.9,1.5c1.2,0.4,2.6-0.1,3.8,0.2
	c2.1,0.5,3.3,2.9,4.4,5c1,1.9,2.3,4.3,3.5,5.8c1.6,1.9,3.3,3,6.8,3.1C36.3,48.8,18,48.6,0,48.6z"/>
</svg>
