<?xml version="1.0" encoding="utf-8"?>
<!-- Generator: Adobe Illustrator 23.0.1, SVG Export Plug-In . SVG Version: 6.00 Build 0)  -->
<svg version="1.1" id="Layer_1" xmlns="http://www.w3.org/2000/svg" xmlns:xlink="http://www.w3.org/1999/xlink" x="0px" y="0px"
	 viewBox="0 0 95.6 84.6" style="enable-background:new 0 0 95.6 84.6;" xml:space="preserve">
<path d="M7,84.6c-3.9,0-7.1-3.2-7.1-7.1s3.2-7.1,7.1-7.1s7.1,3.2,7.1,7.1S11,84.6,7,84.6z"/>
<circle cx="7" cy="54.1" r="7.1"/>
<circle cx="7" cy="30.6" r="7.1"/>
<path d="M27.4,84.6c-3.9,0-7.1-3.2-7.1-7.1s3.2-7.1,7.1-7.1s7.1,3.2,7.1,7.1S31.3,84.6,27.4,84.6z"/>
<circle cx="27.4" cy="54.1" r="7.1"/>
<circle cx="27.4" cy="30.6" r="7.1"/>
<path d="M47.7,84.6c-3.9,0-7.1-3.2-7.1-7.1s3.2-7.1,7.1-7.1s7.1,3.2,7.1,7.1S51.7,84.6,47.7,84.6z"/>
<path d="M47.7,61.2c-3.9,0-7.1-3.2-7.1-7.1s3.2-7.1,7.1-7.1s7.1,3.2,7.1,7.1S51.7,61.2,47.7,61.2z"/>
<circle cx="68.1" cy="54.1" r="7.1"/>
<circle cx="47.8" cy="30.6" r="7.1"/>
<circle cx="68.2" cy="30.6" r="7.1"/>
<path d="M7.1,14.2C3.2,14.2,0,11,0,7.1S3.2,0,7.1,0s7.1,3.2,7.1,7.1S11.1,14.2,7.1,14.2z"/>
<path d="M27.5,14.2c-3.9,0-7.1-3.2-7.1-7.1S23.6,0,27.5,0s7.1,3.2,7.1,7.1S31.4,14.2,27.5,14.2z"/>
<circle cx="88.5" cy="54.1" r="7.1"/>
</svg>
